<svg id="visual" viewBox="0 0 960 100" width="960" height="100" xmlns="http://www.w3.org/2000/svg" xmlns:xlink="http://www.w3.org/1999/xlink" version="1.1"><path d="M0 59L20 57.5C40 56 80 53 120 52.7C160 52.3 200 54.7 240 58.2C280 61.7 320 66.3 360 68.7C400 71 440 71 480 69.7C520 68.3 560 65.7 600 65.3C640 65 680 67 720 69.3C760 71.7 800 74.3 840 71.7C880 69 920 61 940 57L960 53L960 0L940 0C920 0 880 0 840 0C800 0 760 0 720 0C680 0 640 0 600 0C560 0 520 0 480 0C440 0 400 0 360 0C320 0 280 0 240 0C200 0 160 0 120 0C80 0 40 0 20 0L0 0Z" fill="#ffffff"></path><path d="M0 54L20 56.3C40 58.7 80 63.3 120 64.2C160 65 200 62 240 59.7C280 57.3 320 55.7 360 53.8C400 52 440 50 480 51.5C520 53 560 58 600 58.2C640 58.3 680 53.7 720 50.2C760 46.7 800 44.3 840 42.8C880 41.3 920 40.7 940 40.3L960 40L960 0L940 0C920 0 880 0 840 0C800 0 760 0 720 0C680 0 640 0 600 0C560 0 520 0 480 0C440 0 400 0 360 0C320 0 280 0 240 0C200 0 160 0 120 0C80 0 40 0 20 0L0 0Z" fill="#fbf7f6"></path><path d="M0 51L20 50.3C40 49.7 80 48.3 120 45.5C160 42.7 200 38.3 240 36C280 33.7 320 33.3 360 35.2C400 37 440 41 480 40.3C520 39.7 560 34.3 600 32C640 29.7 680 30.3 720 30.8C760 31.3 800 31.7 840 32C880 32.3 920 32.7 940 32.8L960 33L960 0L940 0C920 0 880 0 840 0C800 0 760 0 720 0C680 0 640 0 600 0C560 0 520 0 480 0C440 0 400 0 360 0C320 0 280 0 240 0C200 0 160 0 120 0C80 0 40 0 20 0L0 0Z" fill="#f6f0ee"></path><path d="M0 23L20 23.8C40 24.7 80 26.3 120 28.7C160 31 200 34 240 34.5C280 35 320 33 360 31C400 29 440 27 480 28.2C520 29.3 560 33.7 600 33.2C640 32.7 680 27.3 720 27.3C760 27.3 800 32.7 840 32.7C880 32.7 920 27.3 940 24.7L960 22L960 0L940 0C920 0 880 0 840 0C800 0 760 0 720 0C680 0 640 0 600 0C560 0 520 0 480 0C440 0 400 0 360 0C320 0 280 0 240 0C200 0 160 0 120 0C80 0 40 0 20 0L0 0Z" fill="#f2e9e6"></path><path d="M0 13L20 12.3C40 11.7 80 10.3 120 11.2C160 12 200 15 240 15.3C280 15.7 320 13.3 360 11.8C400 10.3 440 9.7 480 11C520 12.3 560 15.7 600 15.7C640 15.7 680 12.3 720 13C760 13.7 800 18.3 840 19.3C880 20.3 920 17.7 940 16.3L960 15L960 0L940 0C920 0 880 0 840 0C800 0 760 0 720 0C680 0 640 0 600 0C560 0 520 0 480 0C440 0 400 0 360 0C320 0 280 0 240 0C200 0 160 0 120 0C80 0 40 0 20 0L0 0Z" fill="#ede2de"></path></svg>